<svg version="1.1" id="Layer_1" xmlns="http://www.w3.org/2000/svg" xmlns:xlink="http://www.w3.org/1999/xlink" x="0px" y="0px"
	 width="100%" viewBox="0 0 933 366" enable-background="new 0 0 933 366" xml:space="preserve">
<path fill="#FFFFFF" opacity="1.000000" stroke="none" 
	d="
M934.000000,171.000000 
	C934.000000,236.301834 934.000000,301.603668 934.000000,367.000000 
	C703.642578,367.000000 473.285187,367.000000 242.649689,366.620422 
	C245.607635,365.829620 248.849609,365.460327 252.078644,365.000183 
	C268.552551,362.652649 284.365509,357.868134 299.364319,350.818817 
	C322.050323,340.156586 342.098999,325.886505 358.807953,306.880005 
	C371.488861,292.455505 382.012695,276.855560 389.994720,259.393402 
	C399.295258,239.046738 404.181183,217.614212 405.878784,195.490250 
	C407.079834,179.837646 405.872742,164.121323 402.784607,148.736023 
	C399.051453,130.137222 392.688202,112.417938 383.414276,95.722763 
	C375.120911,80.792816 365.529999,66.698792 353.209686,55.077816 
	C342.368073,44.851570 330.115112,35.968460 317.790985,27.503241 
	C299.772125,15.126442 279.287415,8.370857 257.993164,4.006649 
	C252.679901,2.917701 247.331985,1.997669 242.000000,0.999999 
	C472.551727,1.000000 703.103455,1.000000 934.000000,1.000000 
	C934.000000,56.356934 934.000000,111.714584 933.615112,167.400543 
	C932.407837,165.824905 931.894897,162.511429 930.711609,162.251678 
	C924.270569,160.837753 914.039978,164.839523 912.125671,172.202072 
	C910.994568,176.552155 911.016724,181.202087 910.492371,185.971527 
	C907.159241,185.681580 904.726562,186.009232 904.809448,190.808716 
	C904.888611,195.388824 906.620483,196.703293 910.556458,196.006790 
	C910.774231,196.661835 910.964111,196.968063 910.965027,197.274902 
	C910.988770,204.922653 910.996765,212.570480 910.999146,220.218292 
	C911.002747,231.601334 911.000061,231.602280 922.215332,230.928589 
	C922.343445,230.920898 922.460938,230.736130 922.500000,230.703537 
	C922.500000,218.825485 922.500000,207.017853 922.500000,195.105591 
	C925.864136,195.435684 929.305481,195.773346 932.703491,196.106766 
	C932.703491,192.316376 932.703491,189.245499 932.703491,185.825836 
	C928.987793,185.825836 925.565369,185.825836 922.174927,185.825836 
	C921.667053,174.824738 921.961975,174.407242 931.772583,171.726120 
	C932.524963,171.520508 933.257996,171.243729 934.000000,171.000000 
M487.966125,45.704437 
	C486.862427,43.208931 485.623077,40.762737 484.693024,38.204117 
	C483.753204,35.618732 482.147064,34.704819 479.432983,34.949108 
	C476.806366,35.185528 474.134216,35.126263 471.496033,34.966370 
	C468.637390,34.793118 467.071564,35.352936 465.860199,38.588676 
	C457.717712,60.337883 449.166290,81.933647 440.821686,103.607735 
	C438.024139,110.873985 435.443420,118.223709 432.593262,126.000000 
	C435.600555,126.000000 437.919098,126.000000 440.237610,126.000000 
	C451.141632,126.000008 451.141632,126.000008 454.016205,115.183144 
	C455.983521,107.780243 457.011200,107.000023 464.794769,107.000000 
	C469.294586,106.999985 473.794434,107.000008 478.294250,107.000000 
	C493.840485,107.000000 493.844604,106.998558 499.014526,121.893196 
	C499.936462,124.549210 501.109833,126.384293 504.584747,126.095169 
	C509.216431,125.709785 513.904297,125.999977 518.982910,125.999977 
	C513.823853,112.594147 508.805084,99.421242 503.685944,86.287453 
	C498.509033,73.005531 493.232788,59.762344 487.966125,45.704437 
M585.097839,110.405502 
	C585.595215,109.248482 586.274963,108.134781 586.561646,106.927734 
	C589.449280,94.769272 588.983948,83.095177 581.120056,72.660835 
	C572.237488,60.874893 550.173157,58.877357 541.287781,70.097267 
	C540.895508,70.592590 540.005981,70.694115 539.500000,70.913261 
	C539.500000,58.830315 539.500000,47.013107 539.500000,34.639000 
	C533.926819,35.137119 528.487427,35.623287 524.000000,36.024368 
	C524.000000,51.482979 524.000000,66.208473 524.000000,80.933960 
	C524.000000,95.824249 524.000000,110.714539 524.000000,125.744675 
	C528.402405,125.744675 533.639282,125.744675 538.761414,125.744675 
	C539.027710,123.764793 539.257996,122.052414 539.584290,119.626183 
	C540.871338,120.635452 541.453674,121.109535 542.053711,121.559990 
	C550.239258,127.704781 559.441284,128.591492 568.890564,125.881569 
	C576.463623,123.709694 581.113037,117.727219 585.097839,110.405502 
M757.000000,90.559944 
	C757.654785,84.739082 758.437256,78.928116 758.889221,73.091545 
	C759.031555,71.252861 758.725281,67.984322 757.872070,67.709999 
	C754.533569,66.636627 750.836182,65.943596 747.396362,66.301643 
	C746.111389,66.435387 745.166016,69.832062 743.908875,72.013268 
	C743.243530,71.451393 742.195007,70.887428 741.599792,70.014435 
	C734.373901,59.416412 710.944824,62.172348 703.026428,70.046906 
	C692.494873,80.520126 689.695801,102.222046 699.265198,116.087471 
	C707.552612,128.095383 723.308350,131.294235 734.362793,124.839439 
	C737.222778,123.169487 739.708984,120.859383 742.511597,118.733582 
	C743.214172,121.785477 743.811401,124.379623 744.414673,127.000000 
	C747.556641,127.000000 750.396606,126.801132 753.197021,127.049126 
	C756.896301,127.376717 758.243530,126.026154 758.058228,122.256393 
	C757.555176,112.026604 757.333374,101.782974 757.000000,90.559944 
M640.000000,71.767776 
	C640.000000,81.266891 640.280151,90.779472 639.824402,100.256676 
	C639.692505,102.999695 638.052612,106.301422 636.019226,108.160522 
	C633.529358,110.437004 630.007202,111.757759 626.737854,112.969566 
	C621.269897,114.996368 613.617065,111.314507 613.192627,105.793556 
	C612.492859,96.693260 612.826477,87.502914 612.960510,78.353989 
	C613.019165,74.348946 613.659912,70.352440 614.051880,66.186584 
	C608.773621,66.186584 603.996277,66.186584 598.847534,66.186584 
	C597.947021,72.402840 596.705505,78.459175 596.265564,84.573196 
	C595.523682,94.882172 595.201538,105.375557 598.857727,115.188156 
	C603.274658,127.042320 613.508118,127.745872 625.215576,124.962761 
	C630.526978,123.700119 635.199341,119.748833 640.002258,117.104904 
	C640.002258,118.757500 639.714844,120.979172 640.119568,123.066643 
	C640.332092,124.162804 641.704529,125.796310 642.642639,125.859528 
	C647.041626,126.155991 651.471802,125.991310 655.500000,125.991310 
	C655.500000,105.581169 655.500000,85.840027 655.500000,66.000000 
	C651.990540,66.000000 648.644958,66.223076 645.342407,65.941208 
	C641.564209,65.618744 639.831482,67.066139 640.000000,71.767776 
M637.000000,205.865021 
	C637.275146,200.391602 643.022339,194.653305 647.862305,195.019516 
	C652.790222,195.392380 654.999756,198.740356 654.999939,205.835907 
	C655.000122,214.112823 655.000000,222.389740 655.000000,230.776535 
	C659.186462,230.776535 662.922913,230.776535 666.999084,230.776535 
	C666.999084,220.102173 667.330566,209.632675 666.863525,199.198914 
	C666.618835,193.731812 665.037903,187.800507 658.692566,186.427582 
	C654.713013,185.566544 650.095825,186.005905 646.141296,187.156281 
	C642.461182,188.226822 639.279785,191.011658 635.745300,193.121536 
	C633.171448,187.612686 628.082764,184.867874 621.707886,186.149872 
	C616.260620,187.245316 611.074707,189.640121 606.183594,191.319275 
	C606.540161,185.863525 604.678833,183.827545 594.381470,187.331284 
	C594.381470,202.162643 594.381470,216.556152 594.381470,230.643188 
	C599.449585,230.643188 603.189270,230.643188 607.000000,230.643188 
	C607.000000,221.796860 606.981628,213.307098 607.007141,204.817474 
	C607.021790,199.942200 614.422180,194.445526 619.190247,195.613647 
	C623.246826,196.607452 625.195129,198.780914 625.075134,203.233795 
	C624.826233,212.468018 625.000000,221.713654 625.000000,230.635025 
	C629.467773,230.635025 633.206543,230.635025 637.000000,230.635025 
	C637.000000,222.444550 637.000000,214.618912 637.000000,205.865021 
M612.568726,287.053497 
	C610.382507,275.453125 603.944275,270.260773 594.488220,273.362549 
	C589.896240,274.868774 585.851929,278.044678 581.404602,280.552185 
	C578.633911,275.672363 573.913025,272.173706 567.840942,273.214203 
	C562.379517,274.150085 557.229675,276.904205 551.837891,278.894897 
	C551.495117,277.439362 550.988892,275.290009 550.424622,272.894043 
	C546.698853,273.382050 543.017944,273.864166 539.514893,274.322998 
	C540.011963,281.646637 540.706238,288.919342 540.944763,296.206940 
	C541.192688,303.780853 541.000000,311.369202 541.000000,318.642303 
	C545.115112,318.642303 548.521667,318.642303 552.000000,318.642303 
	C552.000000,310.627747 552.270996,302.958313 551.924316,295.316925 
	C551.572510,287.562988 555.057129,285.904938 560.229553,283.998505 
	C567.413269,281.350769 570.979858,283.863708 570.995361,291.283600 
	C571.014465,300.398499 571.000000,309.513489 571.000000,318.794739 
	C575.148621,318.794739 578.885132,318.794739 583.000000,318.794739 
	C583.000000,310.308929 582.996826,302.022675 583.001160,293.736420 
	C583.004150,287.919189 587.629578,283.075836 593.243225,283.000000 
	C599.342957,282.917633 600.996643,285.075623 600.999390,293.136902 
	C601.002258,301.725311 601.000000,310.313751 601.000000,319.000000 
	C603.806702,319.000000 605.981934,318.826569 608.118835,319.038818 
	C611.725403,319.397064 613.466248,318.195496 613.028564,314.329865 
	C612.567932,310.262268 612.058716,306.168152 612.071838,302.087250 
	C612.087158,297.341278 612.646606,292.597107 612.568726,287.053497 
M658.463440,319.000000 
	C660.240845,319.000000 662.018188,319.000000 663.000000,319.000000 
	C663.000000,310.419922 662.940125,302.374817 663.019226,294.331055 
	C663.080872,288.067688 667.810974,283.297302 673.878418,282.974182 
	C677.693787,282.771027 680.723999,284.104614 680.940369,288.041046 
	C681.416260,296.698059 681.603088,305.394501 681.332031,314.056824 
	C681.230591,317.298553 681.343872,319.129242 685.051270,319.015320 
	C687.643738,318.935638 690.240540,318.999908 692.999573,318.999908 
	C692.999573,307.096832 693.290283,295.784119 692.799744,284.505371 
	C692.673523,281.602203 690.809631,277.820038 688.505554,276.134186 
	C679.346008,269.432220 669.522095,273.993011 662.304260,281.623322 
	C659.877014,275.273285 654.811646,272.142334 648.563354,273.233734 
	C642.943604,274.215393 637.670349,277.180603 632.358521,279.226898 
	C631.529907,273.209015 631.529907,273.209015 620.703613,274.336212 
	C621.312012,289.218781 621.919189,304.072235 622.515259,318.653473 
	C626.096863,318.653473 629.501892,318.653473 633.000000,318.653473 
	C633.000000,309.825592 632.981506,301.343872 633.006775,292.862305 
	C633.022461,287.587555 638.591919,282.922821 644.711975,283.000031 
	C649.454041,283.059845 651.991577,286.370819 651.997742,292.544250 
	C652.006531,301.299164 652.000000,310.054077 652.000000,319.000000 
	C654.224365,319.000000 655.868835,319.000000 658.463440,319.000000 
M686.582092,183.930954 
	C686.582092,177.364243 686.582092,170.797531 686.582092,163.661026 
	C682.307678,164.140976 678.198975,164.602325 674.500000,165.017654 
	C674.500000,187.354050 674.500000,209.049118 674.500000,230.873596 
	C678.122803,230.873596 681.759460,230.873596 685.411865,230.873596 
	C685.970520,229.637955 686.528259,228.404465 687.131470,227.070328 
	C694.702759,234.323456 709.159973,233.962112 715.739014,226.609344 
	C725.058899,216.193451 725.317261,201.200989 716.341492,190.921616 
	C709.120056,182.651321 696.423828,182.795044 686.047241,191.316177 
	C686.047241,188.804611 686.047241,186.741776 686.582092,183.930954 
M469.212433,262.992249 
	C473.262421,265.550812 477.312439,268.109375 481.460785,270.730103 
	C482.173431,269.718506 483.123016,268.457550 483.981354,267.137268 
	C487.933899,261.057648 487.821014,259.737274 481.361359,255.920349 
	C477.439911,253.603195 473.157135,251.491592 468.761780,250.467987 
	C459.921692,248.409256 447.922180,252.233093 441.632019,259.524078 
	C434.607666,267.666077 432.999237,276.761627 432.830841,287.039154 
	C432.599640,301.147339 441.353943,317.174896 458.490875,319.718567 
	C469.364807,321.332642 478.813629,318.136627 485.915192,309.411346 
	C486.566406,308.611237 486.593750,306.646942 486.070526,305.675964 
	C484.740265,303.207184 482.933258,300.995270 480.656677,297.734711 
	C479.176331,299.689667 478.342102,301.188080 477.149658,302.303528 
	C466.947083,311.847168 452.874847,309.373047 447.532379,296.999847 
	C444.110687,289.075256 444.025269,280.884247 447.559967,273.013397 
	C451.586304,264.047882 459.850586,259.820587 469.212433,262.992249 
M447.540466,228.063416 
	C453.142609,232.407944 459.700409,232.118683 466.260223,232.021347 
	C474.254669,231.902740 480.415497,227.976517 485.734406,222.564056 
	C486.618958,221.663925 486.825867,219.083008 486.197205,217.878098 
	C482.554901,210.896973 480.967987,210.651932 475.361786,216.183060 
	C469.865723,221.605499 458.018524,221.887848 452.222717,215.954025 
	C444.503815,208.051315 442.424866,192.217133 449.392792,182.285156 
	C455.974976,172.903000 466.843811,171.624924 475.074066,178.652069 
	C481.748016,184.350418 481.684448,184.528671 485.759888,176.653839 
	C486.259705,175.688019 486.652771,174.666977 487.019684,173.841736 
	C480.423462,165.175323 471.809357,162.510788 461.423279,162.853394 
	C451.524994,163.179886 444.282898,167.477448 439.017700,175.319641 
	C427.603912,192.319733 430.910339,213.979736 447.540466,228.063416 
M523.856750,185.011948 
	C516.162720,184.406784 508.853119,185.008377 502.867737,192.995728 
	C502.867737,182.375153 502.867737,173.213730 502.867737,164.000000 
	C499.816193,164.000000 497.297272,164.226074 494.834839,163.949570 
	C490.632355,163.477661 489.735840,165.454132 489.953278,169.203049 
	C490.744202,182.838638 491.442505,196.481842 491.954681,210.130447 
	C492.213928,217.037979 492.000000,223.963272 492.000000,230.680267 
	C496.050262,230.680267 499.452240,230.680267 503.000061,230.680267 
	C503.000061,221.556183 502.926758,212.750092 503.027802,203.945984 
	C503.087402,198.750519 510.549469,193.796997 515.628113,194.807693 
	C521.427612,195.961853 521.792114,200.318634 521.920715,204.575653 
	C522.184814,213.319275 522.000000,222.076462 522.000000,230.703522 
	C526.004089,230.703522 529.408264,230.703522 533.000000,230.703522 
	C533.000000,220.111206 532.881165,209.812271 533.042908,199.517746 
	C533.146301,192.937866 531.274353,187.749420 523.856750,185.011948 
M541.377563,197.099335 
	C538.300415,203.572876 537.953308,210.446396 540.165588,217.006622 
	C542.684692,224.476883 549.312195,233.152557 559.918823,231.841141 
	C565.269104,231.179642 570.414124,228.857498 575.629211,227.293045 
	C576.745239,231.673325 576.799805,231.694977 586.998047,230.567459 
	C586.998047,215.845352 586.998047,201.071747 586.998047,186.236786 
	C577.743347,185.517593 577.697021,185.539825 576.478333,191.587158 
	C564.064880,180.893860 547.887573,183.213013 541.377563,197.099335 
M834.797913,301.000061 
	C840.379395,300.663055 846.030762,300.740112 851.512939,299.814606 
	C854.260498,299.350769 858.425781,299.866333 859.015808,295.163086 
	C860.587524,282.635651 851.181885,272.659393 839.202454,271.977570 
	C826.106995,271.232269 815.166260,283.814331 815.890076,296.994232 
	C816.450562,307.200989 821.278320,315.224701 829.848145,318.013367 
	C842.666504,322.184479 852.319885,319.812622 858.973206,310.841644 
	C857.749817,308.506073 856.523804,306.165497 855.279175,303.789276 
	C842.914734,312.659637 831.133179,311.887360 828.277954,302.378601 
	C830.148865,301.919800 832.021179,301.460602 834.797913,301.000061 
M731.227539,307.978912 
	C721.030334,312.049866 713.561584,309.928192 711.106506,301.839233 
	C718.666382,301.220520 726.156250,300.837891 733.574524,299.893433 
	C736.793396,299.483612 741.315796,300.087433 741.954895,295.130615 
	C743.487976,283.240448 735.714478,273.888123 724.219604,272.123322 
	C715.037476,270.713593 705.555786,275.533447 700.941406,285.998688 
	C696.771729,295.455322 698.908386,307.872040 705.673218,313.957306 
	C715.139709,322.472839 734.125305,322.719299 742.041260,310.975220 
	C740.851440,308.662262 739.631714,306.291382 738.406006,303.908783 
	C736.085693,305.227966 734.006653,306.409973 731.227539,307.978912 
M728.911072,221.417435 
	C735.923584,235.169281 757.770508,235.178406 767.582703,225.650314 
	C770.283875,223.027252 767.030334,220.487747 765.857666,218.173203 
	C765.627075,217.718033 763.361389,217.966751 762.200623,218.369766 
	C758.292236,219.726685 754.547974,221.627213 750.574524,222.708038 
	C745.472534,224.095871 739.009094,219.454636 737.884644,214.260117 
	C746.669128,213.506714 755.488220,212.812576 764.291870,211.959930 
	C767.183411,211.679871 768.955444,209.964355 768.992188,206.888168 
	C769.084839,199.135788 766.723328,192.345718 759.978271,188.070419 
	C752.515747,183.340332 744.475708,183.461548 736.886475,187.726120 
	C726.386780,193.626114 722.762817,208.650681 728.911072,221.417435 
M670.000000,119.332275 
	C669.165222,123.613472 671.476929,129.712616 664.848572,130.882828 
	C659.093933,131.898788 658.468872,135.201736 658.972290,139.840439 
	C659.146545,141.445847 659.000000,143.086060 659.000000,144.668121 
	C673.252808,145.876419 684.923950,135.952057 684.122437,122.535004 
	C683.507446,112.240631 683.923584,101.879181 684.044861,91.549492 
	C684.083130,88.294167 684.843445,85.050400 684.933960,81.791916 
	C685.089050,76.211655 684.976868,70.623970 684.976868,65.001167 
	C680.283752,65.001167 676.284973,64.945625 672.288696,65.020279 
	C669.525513,65.071884 667.508362,65.958939 667.980835,69.375931 
	C668.405457,72.447212 668.867798,75.534813 668.964722,78.626160 
	C669.380066,91.873283 669.666565,105.124451 670.000000,119.332275 
M510.616577,320.000000 
	C527.156982,320.500641 538.256775,304.942993 534.124390,289.908539 
	C530.793335,277.789825 523.236633,273.433594 514.848267,272.152893 
	C504.189056,270.525574 493.958740,276.494720 490.478790,286.120209 
	C485.479126,299.949219 490.755432,317.434601 510.616577,320.000000 
M886.697632,185.184326 
	C880.359558,185.027588 873.855286,183.879547 868.032349,187.486740 
	C858.573486,193.346268 855.794556,202.450546 857.134644,212.753143 
	C858.207764,221.003677 862.665771,227.948288 870.730896,230.691299 
	C878.920959,233.476791 887.276306,233.331421 894.551392,227.001404 
	C908.105591,215.208008 904.979980,192.159103 886.697632,185.184326 
M807.238525,273.001068 
	C797.788330,270.437408 789.364563,272.551636 782.916809,279.768829 
	C775.860352,287.667480 774.899597,300.822479 780.296631,308.672821 
	C787.356201,318.941315 796.796387,321.843079 809.098755,318.614868 
	C813.260864,317.522705 813.385010,315.109833 812.902283,312.100494 
	C812.619934,310.340424 811.565430,308.704224 810.844910,306.980347 
	C802.497437,311.262665 797.447693,310.885773 792.639404,306.201172 
	C788.618164,302.283447 787.199219,293.220154 791.066956,288.176819 
	C792.747986,285.984833 795.250122,283.559052 797.747620,283.051270 
	C801.904114,282.206146 806.357361,282.820923 811.300781,282.820923 
	C815.479858,276.650940 815.318481,275.991852 807.238525,273.001068 
M765.110474,285.014374 
	C768.254883,285.014374 771.399231,285.014374 774.591736,285.014374 
	C775.099121,282.736450 775.644409,280.732513 775.978821,278.693939 
	C776.656372,274.564148 775.252747,271.937195 770.676819,273.078430 
	C766.642334,274.084625 762.775330,275.762268 758.451477,277.277618 
	C758.223083,275.720398 757.974182,274.022614 757.681152,272.024628 
	C753.788574,272.486115 749.957458,272.940308 746.589966,273.339539 
	C747.397095,281.304077 748.480347,289.197876 748.893860,297.126587 
	C749.140015,301.846802 748.139343,306.617981 748.043579,311.373199 
	C747.883789,319.305389 747.998779,319.137146 755.918640,319.078644 
	C759.388489,319.053009 760.111572,317.596527 760.048584,314.533142 
	C759.897888,307.204987 760.235718,299.860840 759.901733,292.544830 
	C759.731995,288.827759 761.070618,286.631104 765.110474,285.014374 
M804.016418,201.965958 
	C805.747864,208.837280 812.106445,210.658813 817.036560,214.106186 
	C818.095154,214.846390 818.978821,216.785477 818.832642,218.043243 
	C818.674316,219.406113 817.447205,221.375671 816.276733,221.730713 
	C814.151611,222.375320 811.671326,221.754211 809.442017,222.188568 
	C808.228943,222.424911 806.329834,223.717163 806.302917,224.581802 
	C806.230408,226.909134 806.997620,229.262619 807.504456,231.999283 
	C810.139954,231.999283 812.945129,232.173996 815.721497,231.965164 
	C822.856628,231.428467 831.312927,224.139618 829.260315,213.967743 
	C827.916931,207.310425 822.679993,205.642731 818.653931,202.167084 
	C817.213318,200.923477 816.234131,199.145447 815.044373,197.611328 
	C816.845825,196.740891 818.577820,195.394547 820.466064,195.118958 
	C822.894287,194.764603 825.551086,195.025406 824.918335,191.548615 
	C824.422546,188.824005 825.101440,185.169769 820.320068,184.931549 
	C811.722839,184.503235 803.429199,190.144913 804.016418,201.965958 
M780.499878,231.000000 
	C782.261536,231.000000 784.023132,231.000000 786.000061,231.000000 
	C786.000061,222.959305 785.883545,215.486694 786.032104,208.019363 
	C786.188171,200.174713 788.114258,197.471146 794.007263,197.117706 
	C796.471497,196.969894 798.997559,197.850830 801.667725,198.292511 
	C801.667725,193.834366 801.667725,189.954865 801.667725,184.661591 
	C795.587158,186.458649 790.203247,188.049805 784.757812,189.659149 
	C784.757812,188.667221 784.757812,186.911804 784.757812,184.603867 
	C780.537720,185.083496 776.704529,185.519135 774.306519,185.791672 
	C774.306519,201.706635 774.306519,216.271683 774.306519,231.000000 
	C776.915466,231.000000 778.230530,231.000000 780.499878,231.000000 
M682.132874,42.012878 
	C679.078430,41.689129 675.963318,40.831108 672.984192,41.169834 
	C668.767090,41.649315 666.233582,46.689396 667.372559,50.904564 
	C668.308777,54.369343 670.270813,56.789444 673.954956,56.939011 
	C678.102295,57.107384 682.663025,58.147274 685.059387,52.933109 
	C686.977112,48.760479 685.634949,45.465561 682.132874,42.012878 
z"/>
<path fill="#319155" opacity="1.000000" stroke="none" 
	d="
M241.531586,0.999999 
	C247.331985,1.997669 252.679901,2.917701 257.993164,4.006649 
	C279.287415,8.370857 299.772125,15.126442 317.790985,27.503241 
	C330.115112,35.968460 342.368073,44.851570 353.209686,55.077816 
	C365.529999,66.698792 375.120911,80.792816 383.414276,95.722763 
	C392.688202,112.417938 399.051453,130.137222 402.784607,148.736023 
	C405.872742,164.121323 407.079834,179.837646 405.878784,195.490250 
	C404.181183,217.614212 399.295258,239.046738 389.994720,259.393402 
	C382.012695,276.855560 371.488861,292.455505 358.807953,306.880005 
	C342.098999,325.886505 322.050323,340.156586 299.364319,350.818817 
	C284.365509,357.868134 268.552551,362.652649 252.078644,365.000183 
	C248.849609,365.460327 245.607635,365.829620 242.185822,366.620422 
	C235.645599,367.000000 229.291214,367.000000 222.468384,366.531342 
	C221.999939,335.805756 221.999939,305.548798 221.999939,275.317993 
	C276.243713,273.255432 308.700500,233.345062 312.863098,194.251648 
	C315.514801,169.348145 309.308167,146.271103 293.149261,126.884132 
	C274.868164,104.950974 250.952621,93.529167 222.000000,92.793785 
	C222.000000,61.922081 222.000000,31.461040 222.000000,1.000000 
	C228.354401,1.000000 234.708786,1.000000 241.531586,0.999999 
z"/>
<path fill="#FFFFFF" opacity="1.000000" stroke="none" 
	d="
M221.531342,1.000000 
	C222.000000,31.461040 222.000000,61.922081 222.000000,92.793785 
	C250.952621,93.529167 274.868164,104.950974 293.149261,126.884132 
	C309.308167,146.271103 315.514801,169.348145 312.863098,194.251648 
	C308.700500,233.345062 276.243713,273.255432 221.999939,275.317993 
	C221.999939,305.548798 221.999939,335.805756 221.999969,366.531342 
	C209.979111,367.000000 197.958206,367.000000 185.470123,366.531342 
	C185.002930,335.812653 185.002930,305.562653 185.002930,275.335083 
	C128.862366,273.258331 96.550743,232.728928 93.150352,190.234085 
	C91.148796,165.220642 99.278442,142.718323 115.755508,124.042870 
	C133.853119,103.530632 157.326813,93.251503 185.000000,92.809814 
	C185.000000,61.908264 185.000000,31.454132 185.000000,1.000000 
	C197.020889,1.000000 209.041794,1.000000 221.531342,1.000000 
M226.313400,227.947906 
	C245.424240,218.611374 254.390701,202.697922 254.819611,182.034988 
	C255.008499,172.934662 252.135620,164.172882 247.084320,156.284027 
	C237.893494,141.930283 224.678024,134.219482 207.899780,133.090942 
	C190.402878,131.914078 176.007492,138.675751 165.197372,152.405884 
	C156.479279,163.478882 153.321960,176.492447 155.284531,190.255295 
	C157.527878,205.986908 166.038803,218.279327 179.808121,226.103546 
	C194.479736,234.440475 209.952026,235.531555 226.313400,227.947906 
z"/>
<path fill="#309054" opacity="1.000000" stroke="none" 
	d="
M184.531586,1.000000 
	C185.000000,31.454132 185.000000,61.908264 185.000000,92.809814 
	C157.326813,93.251503 133.853119,103.530632 115.755508,124.042870 
	C99.278442,142.718323 91.148796,165.220642 93.150352,190.234085 
	C96.550743,232.728928 128.862366,273.258331 185.002930,275.335083 
	C185.002930,305.562653 185.002930,335.812653 185.001465,366.531342 
	C178.645599,367.000000 172.291214,367.000000 165.286346,366.619171 
	C153.954697,364.236694 143.117310,362.835815 132.624893,360.108063 
	C110.917343,354.464600 90.975121,344.539642 73.560440,330.587585 
	C61.571198,320.982269 50.488018,309.957001 40.395535,298.352539 
	C29.795984,286.165009 21.260429,272.180847 15.610731,256.935791 
	C11.024853,244.561340 7.655088,231.722000 4.072221,218.996979 
	C2.605907,213.789169 1.998268,208.339584 0.999999,203.000000 
	C1.000000,190.645767 1.000000,178.291550 1.380732,165.286407 
	C2.714103,158.019791 3.329731,151.334244 4.683796,144.801743 
	C8.452245,126.621399 14.691795,109.232803 24.398535,93.417107 
	C31.147728,82.420288 38.423172,71.515343 46.983906,61.926762 
	C55.460281,52.432667 65.379890,44.041538 75.485840,36.226139 
	C97.219070,19.418816 121.914528,8.878713 148.985992,3.990829 
	C154.329773,3.025981 159.662292,1.998563 165.000000,1.000001 
	C171.354401,1.000000 177.708786,1.000000 184.531586,1.000000 
M175.988739,8.002193 
	C165.641724,9.336330 155.157196,10.015243 144.978455,12.151243 
	C127.769264,15.762573 111.506958,22.211441 96.326164,31.202429 
	C80.107483,40.808117 65.458870,52.253616 52.884518,66.459396 
	C43.649437,76.892670 35.568920,88.040352 29.007120,100.253937 
	C18.062323,120.625671 10.968606,142.165131 8.861665,165.392868 
	C7.180876,183.922577 7.369106,202.308884 11.305266,220.444809 
	C16.555038,244.633209 26.467314,266.866486 40.983097,287.036316 
	C49.951389,299.497833 60.248241,310.802521 72.126976,320.334045 
	C85.520050,331.080688 100.121162,340.119934 116.204071,346.673035 
	C135.714188,354.622650 155.741898,359.731964 177.539017,359.442902 
	C177.691589,358.638580 177.976639,357.834412 177.977463,357.029938 
	C178.001877,333.229156 178.014175,309.428345 177.951553,285.627686 
	C177.948380,284.425354 177.259415,283.224823 176.045441,282.002289 
	C174.137329,281.667938 172.241318,281.164978 170.319107,281.026855 
	C158.605698,280.184906 147.568848,276.376587 137.631638,270.760986 
	C118.056984,259.699188 103.034508,244.082489 93.897942,223.019073 
	C86.021927,204.861740 83.932785,186.011780 87.216347,166.901764 
	C90.854683,145.726944 100.846825,127.582741 116.728882,112.612648 
	C133.760178,96.559288 153.883301,88.184181 177.538879,85.443001 
	C177.691483,84.638710 177.976624,83.834549 177.977448,83.030098 
	C178.001846,59.229351 178.014175,35.428535 177.951569,11.627929 
	C177.948410,10.425524 177.259644,9.224923 175.988739,8.002193 
z"/>
<path fill="#FFFFFF" opacity="1.000000" stroke="none" 
	d="
M164.531342,1.000001 
	C159.662292,1.998563 154.329773,3.025981 148.985992,3.990829 
	C121.914528,8.878713 97.219070,19.418816 75.485840,36.226139 
	C65.379890,44.041538 55.460281,52.432667 46.983906,61.926762 
	C38.423172,71.515343 31.147728,82.420288 24.398535,93.417107 
	C14.691795,109.232803 8.452245,126.621399 4.683796,144.801743 
	C3.329731,151.334244 2.714103,158.019791 1.380732,164.817749 
	C1.000000,110.406319 1.000000,55.812641 1.000000,1.000000 
	C55.354031,1.000000 109.708359,1.000000 164.531342,1.000001 
z"/>
<path fill="#FFFFFF" opacity="1.000000" stroke="none" 
	d="
M0.999999,203.468658 
	C1.998268,208.339584 2.605907,213.789169 4.072221,218.996979 
	C7.655088,231.722000 11.024853,244.561340 15.610731,256.935791 
	C21.260429,272.180847 29.795984,286.165009 40.395535,298.352539 
	C50.488018,309.957001 61.571198,320.982269 73.560440,330.587585 
	C90.975121,344.539642 110.917343,354.464600 132.624893,360.108063 
	C143.117310,362.835815 153.954697,364.236694 164.817932,366.619171 
	C110.406319,367.000000 55.812641,367.000000 1.000000,367.000000 
	C1.000000,312.645966 1.000000,258.291656 0.999999,203.468658 
z"/>
<path fill="#000000" opacity="1.000000" stroke="none" 
	d="
M934.000000,170.625000 
	C933.257996,171.243729 932.524963,171.520508 931.772583,171.726120 
	C921.961975,174.407242 921.667053,174.824738 922.174927,185.825836 
	C925.565369,185.825836 928.987793,185.825836 932.703491,185.825836 
	C932.703491,189.245499 932.703491,192.316376 932.703491,196.106766 
	C929.305481,195.773346 925.864136,195.435684 922.500000,195.105591 
	C922.500000,207.017853 922.500000,218.825485 922.500000,230.703537 
	C922.460938,230.736130 922.343445,230.920898 922.215332,230.928589 
	C911.000061,231.602280 911.002747,231.601334 910.999146,220.218292 
	C910.996765,212.570480 910.988770,204.922653 910.965027,197.274902 
	C910.964111,196.968063 910.774231,196.661835 910.556458,196.006790 
	C906.620483,196.703293 904.888611,195.388824 904.809448,190.808716 
	C904.726562,186.009232 907.159241,185.681580 910.492371,185.971527 
	C911.016724,181.202087 910.994568,176.552155 912.125671,172.202072 
	C914.039978,164.839523 924.270569,160.837753 930.711609,162.251678 
	C931.894897,162.511429 932.407837,165.824905 933.615112,167.864410 
	C934.000000,168.750000 934.000000,169.500000 934.000000,170.625000 
z"/>
<path fill="#000000" opacity="1.000000" stroke="none" 
	d="
M487.983093,46.103310 
	C493.232788,59.762344 498.509033,73.005531 503.685944,86.287453 
	C508.805084,99.421242 513.823853,112.594147 518.982910,125.999977 
	C513.904297,125.999977 509.216431,125.709785 504.584747,126.095169 
	C501.109833,126.384293 499.936462,124.549210 499.014526,121.893196 
	C493.844604,106.998558 493.840485,107.000000 478.294250,107.000000 
	C473.794434,107.000008 469.294586,106.999985 464.794769,107.000000 
	C457.011200,107.000023 455.983521,107.780243 454.016205,115.183144 
	C451.141632,126.000008 451.141632,126.000008 440.237610,126.000000 
	C437.919098,126.000000 435.600555,126.000000 432.593262,126.000000 
	C435.443420,118.223709 438.024139,110.873985 440.821686,103.607735 
	C449.166290,81.933647 457.717712,60.337883 465.860199,38.588676 
	C467.071564,35.352936 468.637390,34.793118 471.496033,34.966370 
	C474.134216,35.126263 476.806366,35.185528 479.432983,34.949108 
	C482.147064,34.704819 483.753204,35.618732 484.693024,38.204117 
	C485.623077,40.762737 486.862427,43.208931 487.983093,46.103310 
M470.033997,68.722939 
	C467.907593,74.746017 465.861206,80.799088 463.619537,86.778954 
	C462.570435,89.577408 462.415527,91.908669 466.113312,91.984436 
	C472.886566,92.123230 479.668732,91.949478 486.440033,91.706932 
	C486.770508,91.695107 487.526764,89.615051 487.246521,88.779129 
	C485.469452,83.478577 483.507660,78.237488 481.506134,73.015373 
	C479.550690,67.913528 477.475159,62.857735 475.006622,56.663212 
	C473.146973,61.307289 471.800079,64.670868 470.033997,68.722939 
z"/>
<path fill="#000000" opacity="1.000000" stroke="none" 
	d="
M585.040527,110.793983 
	C581.113037,117.727219 576.463623,123.709694 568.890564,125.881569 
	C559.441284,128.591492 550.239258,127.704781 542.053711,121.559990 
	C541.453674,121.109535 540.871338,120.635452 539.584290,119.626183 
	C539.257996,122.052414 539.027710,123.764793 538.761414,125.744675 
	C533.639282,125.744675 528.402405,125.744675 524.000000,125.744675 
	C524.000000,110.714539 524.000000,95.824249 524.000000,80.933960 
	C524.000000,66.208473 524.000000,51.482979 524.000000,36.024368 
	C528.487427,35.623287 533.926819,35.137119 539.500000,34.639000 
	C539.500000,47.013107 539.500000,58.830315 539.500000,70.913261 
	C540.005981,70.694115 540.895508,70.592590 541.287781,70.097267 
	C550.173157,58.877357 572.237488,60.874893 581.120056,72.660835 
	C588.983948,83.095177 589.449280,94.769272 586.561646,106.927734 
	C586.274963,108.134781 585.595215,109.248482 585.040527,110.793983 
M542.015930,83.825134 
	C539.243347,89.162910 538.121338,94.659119 539.986755,100.600777 
	C542.356262,108.147896 550.290955,114.462677 558.608948,113.185234 
	C572.405396,111.066414 575.973938,94.306320 571.071594,85.361000 
	C567.319275,78.514168 560.555054,73.214897 552.194458,76.196678 
	C548.547607,77.497330 545.600891,80.760910 542.015930,83.825134 
z"/>
<path fill="#000000" opacity="1.000000" stroke="none" 
	d="
M757.000000,91.052391 
	C757.333374,101.782974 757.555176,112.026604 758.058228,122.256393 
	C758.243530,126.026154 756.896301,127.376717 753.197021,127.049126 
	C750.396606,126.801132 747.556641,127.000000 744.414673,127.000000 
	C743.811401,124.379623 743.214172,121.785477 742.511597,118.733582 
	C739.708984,120.859383 737.222778,123.169487 734.362793,124.839439 
	C723.308350,131.294235 707.552612,128.095383 699.265198,116.087471 
	C689.695801,102.222046 692.494873,80.520126 703.026428,70.046906 
	C710.944824,62.172348 734.373901,59.416412 741.599792,70.014435 
	C742.195007,70.887428 743.243530,71.451393 743.908875,72.013268 
	C745.166016,69.832062 746.111389,66.435387 747.396362,66.301643 
	C750.836182,65.943596 754.533569,66.636627 757.872070,67.709999 
	C758.725281,67.984322 759.031555,71.252861 758.889221,73.091545 
	C758.437256,78.928116 757.654785,84.739082 757.000000,91.052391 
M711.393188,105.916862 
	C714.338440,112.148987 722.518311,115.036133 727.284607,114.395302 
	C740.548035,112.612068 744.773132,97.290199 740.601562,87.110306 
	C737.764038,80.185898 729.694580,75.601326 723.992554,76.393845 
	C711.531189,78.125854 704.375671,93.429466 711.393188,105.916862 
z"/>
<path fill="#000000" opacity="1.000000" stroke="none" 
	d="
M640.000000,71.298164 
	C639.831482,67.066139 641.564209,65.618744 645.342407,65.941208 
	C648.644958,66.223076 651.990540,66.000000 655.500000,66.000000 
	C655.500000,85.840027 655.500000,105.581169 655.500000,125.991310 
	C651.471802,125.991310 647.041626,126.155991 642.642639,125.859528 
	C641.704529,125.796310 640.332092,124.162804 640.119568,123.066643 
	C639.714844,120.979172 640.002258,118.757500 640.002258,117.104904 
	C635.199341,119.748833 630.526978,123.700119 625.215576,124.962761 
	C613.508118,127.745872 603.274658,127.042320 598.857727,115.188156 
	C595.201538,105.375557 595.523682,94.882172 596.265564,84.573196 
	C596.705505,78.459175 597.947021,72.402840 598.847534,66.186584 
	C603.996277,66.186584 608.773621,66.186584 614.051880,66.186584 
	C613.659912,70.352440 613.019165,74.348946 612.960510,78.353989 
	C612.826477,87.502914 612.492859,96.693260 613.192627,105.793556 
	C613.617065,111.314507 621.269897,114.996368 626.737854,112.969566 
	C630.007202,111.757759 633.529358,110.437004 636.019226,108.160522 
	C638.052612,106.301422 639.692505,102.999695 639.824402,100.256676 
	C640.280151,90.779472 640.000000,81.266891 640.000000,71.298164 
z"/>
<path fill="#000000" opacity="1.000000" stroke="none" 
	d="
M637.000000,206.329163 
	C637.000000,214.618912 637.000000,222.444550 637.000000,230.635025 
	C633.206543,230.635025 629.467773,230.635025 625.000000,230.635025 
	C625.000000,221.713654 624.826233,212.468018 625.075134,203.233795 
	C625.195129,198.780914 623.246826,196.607452 619.190247,195.613647 
	C614.422180,194.445526 607.021790,199.942200 607.007141,204.817474 
	C606.981628,213.307098 607.000000,221.796860 607.000000,230.643188 
	C603.189270,230.643188 599.449585,230.643188 594.381470,230.643188 
	C594.381470,216.556152 594.381470,202.162643 594.381470,187.331284 
	C604.678833,183.827545 606.540161,185.863525 606.183594,191.319275 
	C611.074707,189.640121 616.260620,187.245316 621.707886,186.149872 
	C628.082764,184.867874 633.171448,187.612686 635.745300,193.121536 
	C639.279785,191.011658 642.461182,188.226822 646.141296,187.156281 
	C650.095825,186.005905 654.713013,185.566544 658.692566,186.427582 
	C665.037903,187.800507 666.618835,193.731812 666.863525,199.198914 
	C667.330566,209.632675 666.999084,220.102173 666.999084,230.776535 
	C662.922913,230.776535 659.186462,230.776535 655.000000,230.776535 
	C655.000000,222.389740 655.000122,214.112823 654.999939,205.835907 
	C654.999756,198.740356 652.790222,195.392380 647.862305,195.019516 
	C643.022339,194.653305 637.275146,200.391602 637.000000,206.329163 
z"/>
<path fill="#000000" opacity="1.000000" stroke="none" 
	d="
M612.769287,287.452820 
	C612.646606,292.597107 612.087158,297.341278 612.071838,302.087250 
	C612.058716,306.168152 612.567932,310.262268 613.028564,314.329865 
	C613.466248,318.195496 611.725403,319.397064 608.118835,319.038818 
	C605.981934,318.826569 603.806702,319.000000 601.000000,319.000000 
	C601.000000,310.313751 601.002258,301.725311 600.999390,293.136902 
	C600.996643,285.075623 599.342957,282.917633 593.243225,283.000000 
	C587.629578,283.075836 583.004150,287.919189 583.001160,293.736420 
	C582.996826,302.022675 583.000000,310.308929 583.000000,318.794739 
	C578.885132,318.794739 575.148621,318.794739 571.000000,318.794739 
	C571.000000,309.513489 571.014465,300.398499 570.995361,291.283600 
	C570.979858,283.863708 567.413269,281.350769 560.229553,283.998505 
	C555.057129,285.904938 551.572510,287.562988 551.924316,295.316925 
	C552.270996,302.958313 552.000000,310.627747 552.000000,318.642303 
	C548.521667,318.642303 545.115112,318.642303 541.000000,318.642303 
	C541.000000,311.369202 541.192688,303.780853 540.944763,296.206940 
	C540.706238,288.919342 540.011963,281.646637 539.514893,274.322998 
	C543.017944,273.864166 546.698853,273.382050 550.424622,272.894043 
	C550.988892,275.290009 551.495117,277.439362 551.837891,278.894897 
	C557.229675,276.904205 562.379517,274.150085 567.840942,273.214203 
	C573.913025,272.173706 578.633911,275.672363 581.404602,280.552185 
	C585.851929,278.044678 589.896240,274.868774 594.488220,273.362549 
	C603.944275,270.260773 610.382507,275.453125 612.769287,287.452820 
z"/>
<path fill="#000000" opacity="1.000000" stroke="none" 
	d="
M657.988403,319.000000 
	C655.868835,319.000000 654.224365,319.000000 652.000000,319.000000 
	C652.000000,310.054077 652.006531,301.299164 651.997742,292.544250 
	C651.991577,286.370819 649.454041,283.059845 644.711975,283.000031 
	C638.591919,282.922821 633.022461,287.587555 633.006775,292.862305 
	C632.981506,301.343872 633.000000,309.825592 633.000000,318.653473 
	C629.501892,318.653473 626.096863,318.653473 622.515259,318.653473 
	C621.919189,304.072235 621.312012,289.218781 620.703613,274.336212 
	C631.529907,273.209015 631.529907,273.209015 632.358521,279.226898 
	C637.670349,277.180603 642.943604,274.215393 648.563354,273.233734 
	C654.811646,272.142334 659.877014,275.273285 662.304260,281.623322 
	C669.522095,273.993011 679.346008,269.432220 688.505554,276.134186 
	C690.809631,277.820038 692.673523,281.602203 692.799744,284.505371 
	C693.290283,295.784119 692.999573,307.096832 692.999573,318.999908 
	C690.240540,318.999908 687.643738,318.935638 685.051270,319.015320 
	C681.343872,319.129242 681.230591,317.298553 681.332031,314.056824 
	C681.603088,305.394501 681.416260,296.698059 680.940369,288.041046 
	C680.723999,284.104614 677.693787,282.771027 673.878418,282.974182 
	C667.810974,283.297302 663.080872,288.067688 663.019226,294.331055 
	C662.940125,302.374817 663.000000,310.419922 663.000000,319.000000 
	C662.018188,319.000000 660.240845,319.000000 657.988403,319.000000 
z"/>
<path fill="#000000" opacity="1.000000" stroke="none" 
	d="
M686.314697,184.304932 
	C686.047241,186.741776 686.047241,188.804611 686.047241,191.316177 
	C696.423828,182.795044 709.120056,182.651321 716.341492,190.921616 
	C725.317261,201.200989 725.058899,216.193451 715.739014,226.609344 
	C709.159973,233.962112 694.702759,234.323456 687.131470,227.070328 
	C686.528259,228.404465 685.970520,229.637955 685.411865,230.873596 
	C681.759460,230.873596 678.122803,230.873596 674.500000,230.873596 
	C674.500000,209.049118 674.500000,187.354050 674.500000,165.017654 
	C678.198975,164.602325 682.307678,164.140976 686.582092,163.661026 
	C686.582092,170.797531 686.582092,177.364243 686.314697,184.304932 
M697.041931,222.554703 
	C703.991150,222.676514 710.370361,217.216141 711.019348,210.777420 
	C711.886230,202.178207 707.194702,196.190735 699.354553,194.153412 
	C694.367798,192.857574 687.344482,199.941727 686.019043,207.118423 
	C684.989014,212.695038 690.444763,220.520691 697.041931,222.554703 
z"/>
<path fill="#000000" opacity="1.000000" stroke="none" 
	d="
M468.796631,262.937317 
	C459.850586,259.820587 451.586304,264.047882 447.559967,273.013397 
	C444.025269,280.884247 444.110687,289.075256 447.532379,296.999847 
	C452.874847,309.373047 466.947083,311.847168 477.149658,302.303528 
	C478.342102,301.188080 479.176331,299.689667 480.656677,297.734711 
	C482.933258,300.995270 484.740265,303.207184 486.070526,305.675964 
	C486.593750,306.646942 486.566406,308.611237 485.915192,309.411346 
	C478.813629,318.136627 469.364807,321.332642 458.490875,319.718567 
	C441.353943,317.174896 432.599640,301.147339 432.830841,287.039154 
	C432.999237,276.761627 434.607666,267.666077 441.632019,259.524078 
	C447.922180,252.233093 459.921692,248.409256 468.761780,250.467987 
	C473.157135,251.491592 477.439911,253.603195 481.361359,255.920349 
	C487.821014,259.737274 487.933899,261.057648 483.981354,267.137268 
	C483.123016,268.457550 482.173431,269.718506 481.460785,270.730103 
	C477.312439,268.109375 473.262421,265.550812 468.796631,262.937317 
z"/>
<path fill="#000000" opacity="1.000000" stroke="none" 
	d="
M447.165009,228.022003 
	C430.910339,213.979736 427.603912,192.319733 439.017700,175.319641 
	C444.282898,167.477448 451.524994,163.179886 461.423279,162.853394 
	C471.809357,162.510788 480.423462,165.175323 487.019684,173.841736 
	C486.652771,174.666977 486.259705,175.688019 485.759888,176.653839 
	C481.684448,184.528671 481.748016,184.350418 475.074066,178.652069 
	C466.843811,171.624924 455.974976,172.903000 449.392792,182.285156 
	C442.424866,192.217133 444.503815,208.051315 452.222717,215.954025 
	C458.018524,221.887848 469.865723,221.605499 475.361786,216.183060 
	C480.967987,210.651932 482.554901,210.896973 486.197205,217.878098 
	C486.825867,219.083008 486.618958,221.663925 485.734406,222.564056 
	C480.415497,227.976517 474.254669,231.902740 466.260223,232.021347 
	C459.700409,232.118683 453.142609,232.407944 447.165009,228.022003 
z"/>
<path fill="#000000" opacity="1.000000" stroke="none" 
	d="
M524.274658,185.095596 
	C531.274353,187.749420 533.146301,192.937866 533.042908,199.517746 
	C532.881165,209.812271 533.000000,220.111206 533.000000,230.703522 
	C529.408264,230.703522 526.004089,230.703522 522.000000,230.703522 
	C522.000000,222.076462 522.184814,213.319275 521.920715,204.575653 
	C521.792114,200.318634 521.427612,195.961853 515.628113,194.807693 
	C510.549469,193.796997 503.087402,198.750519 503.027802,203.945984 
	C502.926758,212.750092 503.000061,221.556183 503.000061,230.680267 
	C499.452240,230.680267 496.050262,230.680267 492.000000,230.680267 
	C492.000000,223.963272 492.213928,217.037979 491.954681,210.130447 
	C491.442505,196.481842 490.744202,182.838638 489.953278,169.203049 
	C489.735840,165.454132 490.632355,163.477661 494.834839,163.949570 
	C497.297272,164.226074 499.816193,164.000000 502.867737,164.000000 
	C502.867737,173.213730 502.867737,182.375153 502.867737,192.995728 
	C508.853119,185.008377 516.162720,184.406784 524.274658,185.095596 
z"/>
<path fill="#000000" opacity="1.000000" stroke="none" 
	d="
M541.656677,196.819244 
	C547.887573,183.213013 564.064880,180.893860 576.478333,191.587158 
	C577.697021,185.539825 577.743347,185.517593 586.998047,186.236786 
	C586.998047,201.071747 586.998047,215.845352 586.998047,230.567459 
	C576.799805,231.694977 576.745239,231.673325 575.629211,227.293045 
	C570.414124,228.857498 565.269104,231.179642 559.918823,231.841141 
	C549.312195,233.152557 542.684692,224.476883 540.165588,217.006622 
	C537.953308,210.446396 538.300415,203.572876 541.656677,196.819244 
M551.001404,212.313812 
	C553.976501,219.919434 558.809570,223.486511 564.414307,222.213211 
	C571.852234,220.523438 576.243530,213.821228 574.945435,205.639664 
	C574.179199,200.810654 571.601562,196.857666 566.922607,195.100632 
	C562.437988,193.416580 557.779541,194.445801 554.763916,197.988068 
	C551.629639,201.669693 548.878784,206.070526 551.001404,212.313812 
z"/>
<path fill="#000000" opacity="1.000000" stroke="none" 
	d="
M834.345703,301.000732 
	C832.021179,301.460602 830.148865,301.919800 828.277954,302.378601 
	C831.133179,311.887360 842.914734,312.659637 855.279175,303.789276 
	C856.523804,306.165497 857.749817,308.506073 858.973206,310.841644 
	C852.319885,319.812622 842.666504,322.184479 829.848145,318.013367 
	C821.278320,315.224701 816.450562,307.200989 815.890076,296.994232 
	C815.166260,283.814331 826.106995,271.232269 839.202454,271.977570 
	C851.181885,272.659393 860.587524,282.635651 859.015808,295.163086 
	C858.425781,299.866333 854.260498,299.350769 851.512939,299.814606 
	C846.030762,300.740112 840.379395,300.663055 834.345703,301.000732 
M831.589111,293.000000 
	C836.674500,292.373138 841.759888,291.746246 846.773987,291.128174 
	C846.778442,286.124634 842.902527,282.156769 838.377197,282.000031 
	C832.264343,281.788361 827.890137,286.005096 827.240479,293.000000 
	C828.407349,293.000000 829.547546,293.000000 831.589111,293.000000 
z"/>
<path fill="#000000" opacity="1.000000" stroke="none" 
	d="
M731.577576,307.785461 
	C734.006653,306.409973 736.085693,305.227966 738.406006,303.908783 
	C739.631714,306.291382 740.851440,308.662262 742.041260,310.975220 
	C734.125305,322.719299 715.139709,322.472839 705.673218,313.957306 
	C698.908386,307.872040 696.771729,295.455322 700.941406,285.998688 
	C705.555786,275.533447 715.037476,270.713593 724.219604,272.123322 
	C735.714478,273.888123 743.487976,283.240448 741.954895,295.130615 
	C741.315796,300.087433 736.793396,299.483612 733.574524,299.893433 
	C726.156250,300.837891 718.666382,301.220520 711.106506,301.839233 
	C713.561584,309.928192 721.030334,312.049866 731.577576,307.785461 
M723.003723,282.017181 
	C716.254150,281.054474 710.183838,286.478302 710.193909,293.261414 
	C715.079102,292.837677 719.920837,292.490936 724.742310,291.960388 
	C726.462463,291.771118 728.133667,291.136688 729.922607,290.681152 
	C730.549866,285.812134 726.653687,284.397156 723.003723,282.017181 
z"/>
<path fill="#000000" opacity="1.000000" stroke="none" 
	d="
M728.630737,221.147888 
	C722.762817,208.650681 726.386780,193.626114 736.886475,187.726120 
	C744.475708,183.461548 752.515747,183.340332 759.978271,188.070419 
	C766.723328,192.345718 769.084839,199.135788 768.992188,206.888168 
	C768.955444,209.964355 767.183411,211.679871 764.291870,211.959930 
	C755.488220,212.812576 746.669128,213.506714 737.884644,214.260117 
	C739.009094,219.454636 745.472534,224.095871 750.574524,222.708038 
	C754.547974,221.627213 758.292236,219.726685 762.200623,218.369766 
	C763.361389,217.966751 765.627075,217.718033 765.857666,218.173203 
	C767.030334,220.487747 770.283875,223.027252 767.582703,225.650314 
	C757.770508,235.178406 735.923584,235.169281 728.630737,221.147888 
M742.682312,195.873886 
	C741.015747,197.850800 739.161133,199.701767 737.731323,201.837204 
	C736.031555,204.375854 737.165405,206.142563 740.031616,205.918701 
	C744.987183,205.531601 749.938782,204.836151 754.823853,203.910294 
	C757.373108,203.427124 757.677979,201.689728 756.057190,199.566498 
	C752.430969,194.815918 749.290222,193.726562 742.682312,195.873886 
z"/>
<path fill="#000000" opacity="1.000000" stroke="none" 
	d="
M670.000000,118.853210 
	C669.666565,105.124451 669.380066,91.873283 668.964722,78.626160 
	C668.867798,75.534813 668.405457,72.447212 667.980835,69.375931 
	C667.508362,65.958939 669.525513,65.071884 672.288696,65.020279 
	C676.284973,64.945625 680.283752,65.001167 684.976868,65.001167 
	C684.976868,70.623970 685.089050,76.211655 684.933960,81.791916 
	C684.843445,85.050400 684.083130,88.294167 684.044861,91.549492 
	C683.923584,101.879181 683.507446,112.240631 684.122437,122.535004 
	C684.923950,135.952057 673.252808,145.876419 659.000000,144.668121 
	C659.000000,143.086060 659.146545,141.445847 658.972290,139.840439 
	C658.468872,135.201736 659.093933,131.898788 664.848572,130.882828 
	C671.476929,129.712616 669.165222,123.613472 670.000000,118.853210 
z"/>
<path fill="#000000" opacity="1.000000" stroke="none" 
	d="
M510.172302,319.999939 
	C490.755432,317.434601 485.479126,299.949219 490.478790,286.120209 
	C493.958740,276.494720 504.189056,270.525574 514.848267,272.152893 
	C523.236633,273.433594 530.793335,277.789825 534.124390,289.908539 
	C538.256775,304.942993 527.156982,320.500641 510.172302,319.999939 
M499.002533,296.415436 
	C499.338043,297.819550 499.665100,299.225739 500.010559,300.627411 
	C501.152954,305.262756 506.816956,309.953583 511.318909,309.999969 
	C520.604858,310.095642 527.031189,299.546722 523.150574,290.578064 
	C519.257324,281.580231 510.756317,278.860260 504.170563,285.165649 
	C501.537292,287.686859 500.672424,292.055084 499.002533,296.415436 
z"/>
<path fill="#000000" opacity="1.000000" stroke="none" 
	d="
M886.984741,185.495239 
	C904.979980,192.159103 908.105591,215.208008 894.551392,227.001404 
	C887.276306,233.331421 878.920959,233.476791 870.730896,230.691299 
	C862.665771,227.948288 858.207764,221.003677 857.134644,212.753143 
	C855.794556,202.450546 858.573486,193.346268 868.032349,187.486740 
	C873.855286,183.879547 880.359558,185.027588 886.984741,185.495239 
M869.018860,215.208588 
	C872.263245,220.925049 876.701660,223.536209 881.187622,222.367615 
	C889.014648,220.328644 893.842468,212.645035 891.874146,204.840546 
	C890.441345,199.159683 886.891724,194.684967 880.832153,194.653336 
	C877.465759,194.635757 873.062500,196.464218 870.940063,198.986633 
	C867.354614,203.247787 864.989990,208.695251 869.018860,215.208588 
z"/>
<path fill="#000000" opacity="1.000000" stroke="none" 
	d="
M807.662415,273.011658 
	C815.318481,275.991852 815.479858,276.650940 811.300781,282.820923 
	C806.357361,282.820923 801.904114,282.206146 797.747620,283.051270 
	C795.250122,283.559052 792.747986,285.984833 791.066956,288.176819 
	C787.199219,293.220154 788.618164,302.283447 792.639404,306.201172 
	C797.447693,310.885773 802.497437,311.262665 810.844910,306.980347 
	C811.565430,308.704224 812.619934,310.340424 812.902283,312.100494 
	C813.385010,315.109833 813.260864,317.522705 809.098755,318.614868 
	C796.796387,321.843079 787.356201,318.941315 780.296631,308.672821 
	C774.899597,300.822479 775.860352,287.667480 782.916809,279.768829 
	C789.364563,272.551636 797.788330,270.437408 807.662415,273.011658 
z"/>
<path fill="#000000" opacity="1.000000" stroke="none" 
	d="
M764.683838,285.116211 
	C761.070618,286.631104 759.731995,288.827759 759.901733,292.544830 
	C760.235718,299.860840 759.897888,307.204987 760.048584,314.533142 
	C760.111572,317.596527 759.388489,319.053009 755.918640,319.078644 
	C747.998779,319.137146 747.883789,319.305389 748.043579,311.373199 
	C748.139343,306.617981 749.140015,301.846802 748.893860,297.126587 
	C748.480347,289.197876 747.397095,281.304077 746.589966,273.339539 
	C749.957458,272.940308 753.788574,272.486115 757.681152,272.024628 
	C757.974182,274.022614 758.223083,275.720398 758.451477,277.277618 
	C762.775330,275.762268 766.642334,274.084625 770.676819,273.078430 
	C775.252747,271.937195 776.656372,274.564148 775.978821,278.693939 
	C775.644409,280.732513 775.099121,282.736450 774.591736,285.014374 
	C771.399231,285.014374 768.254883,285.014374 764.683838,285.116211 
z"/>
<path fill="#000000" opacity="1.000000" stroke="none" 
	d="
M804.008789,201.547180 
	C803.429199,190.144913 811.722839,184.503235 820.320068,184.931549 
	C825.101440,185.169769 824.422546,188.824005 824.918335,191.548615 
	C825.551086,195.025406 822.894287,194.764603 820.466064,195.118958 
	C818.577820,195.394547 816.845825,196.740891 815.044373,197.611328 
	C816.234131,199.145447 817.213318,200.923477 818.653931,202.167084 
	C822.679993,205.642731 827.916931,207.310425 829.260315,213.967743 
	C831.312927,224.139618 822.856628,231.428467 815.721497,231.965164 
	C812.945129,232.173996 810.139954,231.999283 807.504456,231.999283 
	C806.997620,229.262619 806.230408,226.909134 806.302917,224.581802 
	C806.329834,223.717163 808.228943,222.424911 809.442017,222.188568 
	C811.671326,221.754211 814.151611,222.375320 816.276733,221.730713 
	C817.447205,221.375671 818.674316,219.406113 818.832642,218.043243 
	C818.978821,216.785477 818.095154,214.846390 817.036560,214.106186 
	C812.106445,210.658813 805.747864,208.837280 804.008789,201.547180 
z"/>
<path fill="#000000" opacity="1.000000" stroke="none" 
	d="
M780.022705,231.000000 
	C778.230530,231.000000 776.915466,231.000000 774.306519,231.000000 
	C774.306519,216.271683 774.306519,201.706635 774.306519,185.791672 
	C776.704529,185.519135 780.537720,185.083496 784.757812,184.603867 
	C784.757812,186.911804 784.757812,188.667221 784.757812,189.659149 
	C790.203247,188.049805 795.587158,186.458649 801.667725,184.661591 
	C801.667725,189.954865 801.667725,193.834366 801.667725,198.292511 
	C798.997559,197.850830 796.471497,196.969894 794.007263,197.117706 
	C788.114258,197.471146 786.188171,200.174713 786.032104,208.019363 
	C785.883545,215.486694 786.000061,222.959305 786.000061,231.000000 
	C784.023132,231.000000 782.261536,231.000000 780.022705,231.000000 
z"/>
<path fill="#000000" opacity="1.000000" stroke="none" 
	d="
M682.508545,42.186188 
	C685.634949,45.465561 686.977112,48.760479 685.059387,52.933109 
	C682.663025,58.147274 678.102295,57.107384 673.954956,56.939011 
	C670.270813,56.789444 668.308777,54.369343 667.372559,50.904564 
	C666.233582,46.689396 668.767090,41.649315 672.984192,41.169834 
	C675.963318,40.831108 679.078430,41.689129 682.508545,42.186188 
z"/>
<path fill="#319155" opacity="1.000000" stroke="none" 
	d="
M225.931183,228.014648 
	C209.952026,235.531555 194.479736,234.440475 179.808121,226.103546 
	C166.038803,218.279327 157.527878,205.986908 155.284531,190.255295 
	C153.321960,176.492447 156.479279,163.478882 165.197372,152.405884 
	C176.007492,138.675751 190.402878,131.914078 207.899780,133.090942 
	C224.678024,134.219482 237.893494,141.930283 247.084320,156.284027 
	C252.135620,164.172882 255.008499,172.934662 254.819611,182.034988 
	C254.390701,202.697922 245.424240,218.611374 225.931183,228.014648 
z"/>
<path fill="#FFFFFF" opacity="1.000000" stroke="none" 
	d="
M176.889847,85.976524 
	C153.883301,88.184181 133.760178,96.559288 116.728882,112.612648 
	C100.846825,127.582741 90.854683,145.726944 87.216347,166.901764 
	C83.932785,186.011780 86.021927,204.861740 93.897942,223.019073 
	C103.034508,244.082489 118.056984,259.699188 137.631638,270.760986 
	C147.568848,276.376587 158.605698,280.184906 170.319107,281.026855 
	C172.241318,281.164978 174.137329,281.667938 176.516113,282.477783 
	C176.954575,308.627655 176.922348,334.302063 176.890106,359.976471 
	C155.741898,359.731964 135.714188,354.622650 116.204071,346.673035 
	C100.121162,340.119934 85.520050,331.080688 72.126976,320.334045 
	C60.248241,310.802521 49.951389,299.497833 40.983097,287.036316 
	C26.467314,266.866486 16.555038,244.633209 11.305266,220.444809 
	C7.369106,202.308884 7.180876,183.922577 8.861665,165.392868 
	C10.968606,142.165131 18.062323,120.625671 29.007120,100.253937 
	C35.568920,88.040352 43.649437,76.892670 52.884518,66.459396 
	C65.458870,52.253616 80.107483,40.808117 96.326164,31.202429 
	C111.506958,22.211441 127.769264,15.762573 144.978455,12.151243 
	C155.157196,10.015243 165.641724,9.336330 176.487793,8.477753 
	C176.954498,34.627716 176.922180,60.302120 176.889847,85.976524 
z"/>
<path fill="#218041" opacity="1.000000" stroke="none" 
	d="
M177.214569,359.709686 
	C176.922348,334.302063 176.954575,308.627655 176.938293,282.488342 
	C177.259415,283.224823 177.948380,284.425354 177.951553,285.627686 
	C178.014175,309.428345 178.001877,333.229156 177.977463,357.029938 
	C177.976639,357.834412 177.691589,358.638580 177.214569,359.709686 
z"/>
<path fill="#218041" opacity="1.000000" stroke="none" 
	d="
M177.214355,85.709763 
	C176.922180,60.302120 176.954498,34.627716 176.938477,8.488396 
	C177.259644,9.224923 177.948410,10.425524 177.951569,11.627929 
	C178.014175,35.428535 178.001846,59.229351 177.977448,83.030098 
	C177.976624,83.834549 177.691483,84.638710 177.214355,85.709763 
z"/>
<path fill="#FFFFFF" opacity="1.000000" stroke="none" 
	d="
M470.243591,68.378693 
	C471.800079,64.670868 473.146973,61.307289 475.006622,56.663212 
	C477.475159,62.857735 479.550690,67.913528 481.506134,73.015373 
	C483.507660,78.237488 485.469452,83.478577 487.246521,88.779129 
	C487.526764,89.615051 486.770508,91.695107 486.440033,91.706932 
	C479.668732,91.949478 472.886566,92.123230 466.113312,91.984436 
	C462.415527,91.908669 462.570435,89.577408 463.619537,86.778954 
	C465.861206,80.799088 467.907593,74.746017 470.243591,68.378693 
z"/>
<path fill="#FFFFFF" opacity="1.000000" stroke="none" 
	d="
M542.176025,83.479095 
	C545.600891,80.760910 548.547607,77.497330 552.194458,76.196678 
	C560.555054,73.214897 567.319275,78.514168 571.071594,85.361000 
	C575.973938,94.306320 572.405396,111.066414 558.608948,113.185234 
	C550.290955,114.462677 542.356262,108.147896 539.986755,100.600777 
	C538.121338,94.659119 539.243347,89.162910 542.176025,83.479095 
z"/>
<path fill="#FFFFFF" opacity="1.000000" stroke="none" 
	d="
M711.207153,105.572929 
	C704.375671,93.429466 711.531189,78.125854 723.992554,76.393845 
	C729.694580,75.601326 737.764038,80.185898 740.601562,87.110306 
	C744.773132,97.290199 740.548035,112.612068 727.284607,114.395302 
	C722.518311,115.036133 714.338440,112.148987 711.207153,105.572929 
z"/>
<path fill="#FFFFFF" opacity="1.000000" stroke="none" 
	d="
M696.733398,222.299652 
	C690.444763,220.520691 684.989014,212.695038 686.019043,207.118423 
	C687.344482,199.941727 694.367798,192.857574 699.354553,194.153412 
	C707.194702,196.190735 711.886230,202.178207 711.019348,210.777420 
	C710.370361,217.216141 703.991150,222.676514 696.733398,222.299652 
z"/>
<path fill="#FFFFFF" opacity="1.000000" stroke="none" 
	d="
M550.999329,211.907120 
	C548.878784,206.070526 551.629639,201.669693 554.763916,197.988068 
	C557.779541,194.445801 562.437988,193.416580 566.922607,195.100632 
	C571.601562,196.857666 574.179199,200.810654 574.945435,205.639664 
	C576.243530,213.821228 571.852234,220.523438 564.414307,222.213211 
	C558.809570,223.486511 553.976501,219.919434 550.999329,211.907120 
z"/>
<path fill="#FFFFFF" opacity="1.000000" stroke="none" 
	d="
M831.138428,293.000000 
	C829.547546,293.000000 828.407349,293.000000 827.240479,293.000000 
	C827.890137,286.005096 832.264343,281.788361 838.377197,282.000031 
	C842.902527,282.156769 846.778442,286.124634 846.773987,291.128174 
	C841.759888,291.746246 836.674500,292.373138 831.138428,293.000000 
z"/>
<path fill="#FFFFFF" opacity="1.000000" stroke="none" 
	d="
M723.391113,282.131531 
	C726.653687,284.397156 730.549866,285.812134 729.922607,290.681152 
	C728.133667,291.136688 726.462463,291.771118 724.742310,291.960388 
	C719.920837,292.490936 715.079102,292.837677 710.193909,293.261414 
	C710.183838,286.478302 716.254150,281.054474 723.391113,282.131531 
z"/>
<path fill="#FFFFFF" opacity="1.000000" stroke="none" 
	d="
M742.931763,195.579453 
	C749.290222,193.726562 752.430969,194.815918 756.057190,199.566498 
	C757.677979,201.689728 757.373108,203.427124 754.823853,203.910294 
	C749.938782,204.836151 744.987183,205.531601 740.031616,205.918701 
	C737.165405,206.142563 736.031555,204.375854 737.731323,201.837204 
	C739.161133,199.701767 741.015747,197.850800 742.931763,195.579453 
z"/>
<path fill="#FFFFFF" opacity="1.000000" stroke="none" 
	d="
M499.002563,295.998962 
	C500.672424,292.055084 501.537292,287.686859 504.170563,285.165649 
	C510.756317,278.860260 519.257324,281.580231 523.150574,290.578064 
	C527.031189,299.546722 520.604858,310.095642 511.318909,309.999969 
	C506.816956,309.953583 501.152954,305.262756 500.010559,300.627411 
	C499.665100,299.225739 499.338043,297.819550 499.002563,295.998962 
z"/>
<path fill="#FFFFFF" opacity="1.000000" stroke="none" 
	d="
M868.966553,214.817200 
	C864.989990,208.695251 867.354614,203.247787 870.940063,198.986633 
	C873.062500,196.464218 877.465759,194.635757 880.832153,194.653336 
	C886.891724,194.684967 890.441345,199.159683 891.874146,204.840546 
	C893.842468,212.645035 889.014648,220.328644 881.187622,222.367615 
	C876.701660,223.536209 872.263245,220.925049 868.966553,214.817200 
z"/>
</svg>